<svg width="24" height="19" viewBox="0 0 24 19" fill="none" xmlns="http://www.w3.org/2000/svg">
<path d="M7.28673 9.5C7.28673 6.65938 9.58896 4.35714 12.4296 4.35714C15.2702 4.35714 17.5724 6.65938 17.5724 9.5C17.5724 12.3406 15.2702 14.6429 12.4296 14.6429C9.58896 14.6429 7.28673 12.3406 7.28673 9.5ZM12.4296 12.7143C14.2055 12.7143 15.6439 11.2759 15.6439 9.5C15.6439 7.72411 14.2055 6.28571 12.4296 6.28571C12.4015 6.28571 12.3774 6.28571 12.3131 6.28571C12.4015 6.49062 12.4296 6.70759 12.4296 6.92857C12.4296 8.34687 11.2765 9.5 9.85816 9.5C9.63718 9.5 9.42021 9.47188 9.2153 9.38348C9.2153 9.44777 9.2153 9.47188 9.2153 9.46384C9.2153 11.2759 10.6537 12.7143 12.4296 12.7143ZM4.692 3.73839C6.58361 1.98018 9.18316 0.5 12.4296 0.5C15.676 0.5 18.2756 1.98018 20.168 3.73839C22.0483 5.48214 23.3059 7.53527 23.9006 9.0058C24.0332 9.32321 24.0332 9.67679 23.9006 9.9942C23.3059 11.4286 22.0483 13.4817 20.168 15.2616C18.2756 17.0214 15.676 18.5 12.4296 18.5C9.18316 18.5 6.58361 17.0214 4.692 15.2616C2.81164 13.4817 1.55486 11.4286 0.957039 9.9942C0.825193 9.67679 0.825193 9.32321 0.957039 9.0058C1.55486 7.53527 2.81164 5.48214 4.692 3.73839ZM12.4296 2.42857C9.80995 2.42857 7.65637 3.61786 6.00503 5.14866C4.45816 6.58705 3.39021 8.25848 2.84459 9.5C3.39021 10.7054 4.45816 12.4129 6.00503 13.8513C7.65637 15.3821 9.80995 16.5714 12.4296 16.5714C15.0492 16.5714 17.2028 15.3821 18.8541 13.8513C20.401 12.4129 21.4336 10.7054 22.0162 9.5C21.4336 8.25848 20.401 6.58705 18.8541 5.14866C17.2028 3.61786 15.0492 2.42857 12.4296 2.42857Z" fill="#403131"/>
</svg>
