<svg width="271" height="102" viewBox="0 0 271 102" fill="none" xmlns="http://www.w3.org/2000/svg">
<mask id="path-1-inside-1_131_92" fill="white">
<path d="M114 0H271V102H114V0Z"/>
</mask>
<g filter="url(#filter0_i_131_92)">
<path d="M114 0H271V102H114V0Z" fill="#A4A3A3"/>
</g>
<path d="M114 0V-10H109V0H114ZM271 0H276V-10H271V0ZM271 102V107H276V102H271ZM114 102H109V107H114V102ZM114 10H271V-10H114V10ZM266 0V102H276V0H266ZM271 97H114V107H271V97ZM119 102V0H109V102H119Z" fill="black" fill-opacity="0.5" mask="url(#path-1-inside-1_131_92)"/>
<g filter="url(#filter1_d_131_92)">
<path d="M193 49L155.5 81.0429V16.9571L193 49Z" fill="black"/>
<path d="M193 49L155.5 81.0429V16.9571L193 49Z" stroke="white"/>
</g>
<g filter="url(#filter2_d_131_92)">
<path d="M243 49L205.5 81.0429V16.9571L243 49Z" fill="black"/>
<path d="M243 49L205.5 81.0429V16.9571L243 49Z" stroke="white"/>
</g>
<mask id="path-5-inside-2_131_92" fill="white">
<path d="M0 0H114V102H0V0Z"/>
</mask>
<g filter="url(#filter3_i_131_92)">
<path d="M0 0H114V102H0V0Z" fill="#A4A3A3"/>
</g>
<path d="M0 0V-10H-5V0H0ZM114 0H119V-10H114V0ZM114 102V107H119V102H114ZM0 102H-5V107H0V102ZM0 10H114V-10H0V10ZM109 0V102H119V0H109ZM114 97H0V107H114V97ZM5 102V0H-5V102H5Z" fill="black" fill-opacity="0.5" mask="url(#path-5-inside-2_131_92)"/>
<path d="M41 24.9932L88.9512 51L41 77.0068L41 24.9932Z" fill="black" stroke="white"/>
<defs>
<filter id="filter0_i_131_92" x="114" y="0" width="157" height="106" filterUnits="userSpaceOnUse" color-interpolation-filters="sRGB">
<feFlood flood-opacity="0" result="BackgroundImageFix"/>
<feBlend mode="normal" in="SourceGraphic" in2="BackgroundImageFix" result="shape"/>
<feColorMatrix in="SourceAlpha" type="matrix" values="0 0 0 0 0 0 0 0 0 0 0 0 0 0 0 0 0 0 127 0" result="hardAlpha"/>
<feOffset dy="4"/>
<feGaussianBlur stdDeviation="2"/>
<feComposite in2="hardAlpha" operator="arithmetic" k2="-1" k3="1"/>
<feColorMatrix type="matrix" values="0 0 0 0 0 0 0 0 0 0 0 0 0 0 0 0 0 0 0.25 0"/>
<feBlend mode="normal" in2="shape" result="effect1_innerShadow_131_92"/>
</filter>
<filter id="filter1_d_131_92" x="151" y="15.8721" width="46.7697" height="74.2557" filterUnits="userSpaceOnUse" color-interpolation-filters="sRGB">
<feFlood flood-opacity="0" result="BackgroundImageFix"/>
<feColorMatrix in="SourceAlpha" type="matrix" values="0 0 0 0 0 0 0 0 0 0 0 0 0 0 0 0 0 0 127 0" result="hardAlpha"/>
<feOffset dy="4"/>
<feGaussianBlur stdDeviation="2"/>
<feComposite in2="hardAlpha" operator="out"/>
<feColorMatrix type="matrix" values="0 0 0 0 0 0 0 0 0 0 0 0 0 0 0 0 0 0 0.25 0"/>
<feBlend mode="normal" in2="BackgroundImageFix" result="effect1_dropShadow_131_92"/>
<feBlend mode="normal" in="SourceGraphic" in2="effect1_dropShadow_131_92" result="shape"/>
</filter>
<filter id="filter2_d_131_92" x="201" y="15.8721" width="46.7697" height="74.2557" filterUnits="userSpaceOnUse" color-interpolation-filters="sRGB">
<feFlood flood-opacity="0" result="BackgroundImageFix"/>
<feColorMatrix in="SourceAlpha" type="matrix" values="0 0 0 0 0 0 0 0 0 0 0 0 0 0 0 0 0 0 127 0" result="hardAlpha"/>
<feOffset dy="4"/>
<feGaussianBlur stdDeviation="2"/>
<feComposite in2="hardAlpha" operator="out"/>
<feColorMatrix type="matrix" values="0 0 0 0 0 0 0 0 0 0 0 0 0 0 0 0 0 0 0.25 0"/>
<feBlend mode="normal" in2="BackgroundImageFix" result="effect1_dropShadow_131_92"/>
<feBlend mode="normal" in="SourceGraphic" in2="effect1_dropShadow_131_92" result="shape"/>
</filter>
<filter id="filter3_i_131_92" x="0" y="0" width="114" height="106" filterUnits="userSpaceOnUse" color-interpolation-filters="sRGB">
<feFlood flood-opacity="0" result="BackgroundImageFix"/>
<feBlend mode="normal" in="SourceGraphic" in2="BackgroundImageFix" result="shape"/>
<feColorMatrix in="SourceAlpha" type="matrix" values="0 0 0 0 0 0 0 0 0 0 0 0 0 0 0 0 0 0 127 0" result="hardAlpha"/>
<feOffset dy="4"/>
<feGaussianBlur stdDeviation="2"/>
<feComposite in2="hardAlpha" operator="arithmetic" k2="-1" k3="1"/>
<feColorMatrix type="matrix" values="0 0 0 0 0 0 0 0 0 0 0 0 0 0 0 0 0 0 0.25 0"/>
<feBlend mode="normal" in2="shape" result="effect1_innerShadow_131_92"/>
</filter>
</defs>
</svg>
