<svg width="157" height="102" viewBox="0 0 157 102" fill="none" xmlns="http://www.w3.org/2000/svg">
<mask id="path-1-inside-1_129_65" fill="white">
<path d="M0 0H157V102H0V0Z"/>
</mask>
<g filter="url(#filter0_i_129_65)">
<path d="M0 0H157V102H0V0Z" fill="#A4A3A3"/>
</g>
<path d="M0 0V-10H-5V0H0ZM157 0H162V-10H157V0ZM157 102V107H162V102H157ZM0 102H-5V107H0V102ZM0 10H157V-10H0V10ZM152 0V102H162V0H152ZM157 97H0V107H157V97ZM5 102V0H-5V102H5Z" fill="black" fill-opacity="0.5" mask="url(#path-1-inside-1_129_65)"/>
<g filter="url(#filter1_d_129_65)">
<path d="M79 49L41.5 81.0429V16.9571L79 49Z" fill="black"/>
<path d="M79 49L41.5 81.0429V16.9571L79 49Z" stroke="white"/>
</g>
<g filter="url(#filter2_d_129_65)">
<path d="M129 49L91.5 81.0429V16.9571L129 49Z" fill="black"/>
<path d="M129 49L91.5 81.0429V16.9571L129 49Z" stroke="white"/>
</g>
<defs>
<filter id="filter0_i_129_65" x="0" y="0" width="157" height="106" filterUnits="userSpaceOnUse" color-interpolation-filters="sRGB">
<feFlood flood-opacity="0" result="BackgroundImageFix"/>
<feBlend mode="normal" in="SourceGraphic" in2="BackgroundImageFix" result="shape"/>
<feColorMatrix in="SourceAlpha" type="matrix" values="0 0 0 0 0 0 0 0 0 0 0 0 0 0 0 0 0 0 127 0" result="hardAlpha"/>
<feOffset dy="4"/>
<feGaussianBlur stdDeviation="2"/>
<feComposite in2="hardAlpha" operator="arithmetic" k2="-1" k3="1"/>
<feColorMatrix type="matrix" values="0 0 0 0 0 0 0 0 0 0 0 0 0 0 0 0 0 0 0.25 0"/>
<feBlend mode="normal" in2="shape" result="effect1_innerShadow_129_65"/>
</filter>
<filter id="filter1_d_129_65" x="37" y="15.8721" width="46.7697" height="74.2557" filterUnits="userSpaceOnUse" color-interpolation-filters="sRGB">
<feFlood flood-opacity="0" result="BackgroundImageFix"/>
<feColorMatrix in="SourceAlpha" type="matrix" values="0 0 0 0 0 0 0 0 0 0 0 0 0 0 0 0 0 0 127 0" result="hardAlpha"/>
<feOffset dy="4"/>
<feGaussianBlur stdDeviation="2"/>
<feComposite in2="hardAlpha" operator="out"/>
<feColorMatrix type="matrix" values="0 0 0 0 0 0 0 0 0 0 0 0 0 0 0 0 0 0 0.25 0"/>
<feBlend mode="normal" in2="BackgroundImageFix" result="effect1_dropShadow_129_65"/>
<feBlend mode="normal" in="SourceGraphic" in2="effect1_dropShadow_129_65" result="shape"/>
</filter>
<filter id="filter2_d_129_65" x="87" y="15.8721" width="46.7697" height="74.2557" filterUnits="userSpaceOnUse" color-interpolation-filters="sRGB">
<feFlood flood-opacity="0" result="BackgroundImageFix"/>
<feColorMatrix in="SourceAlpha" type="matrix" values="0 0 0 0 0 0 0 0 0 0 0 0 0 0 0 0 0 0 127 0" result="hardAlpha"/>
<feOffset dy="4"/>
<feGaussianBlur stdDeviation="2"/>
<feComposite in2="hardAlpha" operator="out"/>
<feColorMatrix type="matrix" values="0 0 0 0 0 0 0 0 0 0 0 0 0 0 0 0 0 0 0.25 0"/>
<feBlend mode="normal" in2="BackgroundImageFix" result="effect1_dropShadow_129_65"/>
<feBlend mode="normal" in="SourceGraphic" in2="effect1_dropShadow_129_65" result="shape"/>
</filter>
</defs>
</svg>
