<svg width="977" height="260" viewBox="0 0 977 260" fill="none" xmlns="http://www.w3.org/2000/svg">
<rect width="977" height="260" fill="#AED6E8"/>
<path d="M90 170L73.5 97H87.7L97.8 151H98.2L108.3 97H122.5L106 170H90ZM130 170V158H140.8V109H130V97H166V109H155.2V158H166V170H130ZM178.2 97.2C181.333 96.7333 184.067 96.4333 186.4 96.3C188.8 96.1 191.033 96 193.1 96C199.633 96 204.867 96.8 208.8 98.4C212.8 100 215.7 102.567 217.5 106.1C219.3 109.567 220.2 114.2 220.2 120C220.2 125.733 219.3 130.367 217.5 133.9C215.7 137.433 212.8 140 208.8 141.6C204.867 143.2 199.633 144 193.1 144C191.433 144 189.8 143.967 188.2 143.9C186.667 143.767 185.333 143.667 184.2 143.6L189 131.6C190 131.733 190.967 131.833 191.9 131.9C192.9 131.967 193.767 132 194.5 132C197.367 132 199.633 131.633 201.3 130.9C202.967 130.1 204.167 128.867 204.9 127.2C205.633 125.467 206 123.167 206 120.3C206 117.433 205.633 115.167 204.9 113.5C204.167 111.767 202.967 110.533 201.3 109.8C199.633 109 197.367 108.6 194.5 108.6C193.767 108.6 192.933 108.633 192 108.7C191.133 108.767 190.133 108.867 189 109L192.2 105.3V170H178.2V97.2ZM205.8 170L189.4 138H204.4L221.2 170H205.8ZM240.8 170V109.4H226.5V97H269.5V109.4H255.2V170H240.8ZM298 171C290.733 171 285.4 169.367 282 166.1C278.667 162.767 277 157.567 277 150.5V97H291V149C291 152.467 291.533 154.933 292.6 156.4C293.667 157.867 295.467 158.6 298 158.6C300.533 158.6 302.333 157.867 303.4 156.4C304.467 154.933 305 152.467 305 149V97H319V150.5C319 157.567 317.3 162.767 313.9 166.1C310.567 169.367 305.267 171 298 171ZM323.5 170L340 97H356L372.5 170H358.3L348.2 114H347.8L337.7 170H323.5ZM334 154.5V142.5H362V154.5H334ZM379.5 170V97H393.9V157.6H418.5V170H379.5ZM478.5 170L473.5 97H487.5L488.3 147H488.7L493.5 107H502.5L507.3 147H507.7L508.5 97H522.5L517.5 170H501L498.2 140H497.8L495 170H478.5ZM523.5 170L540 97H556L572.5 170H558.3L548.2 114H547.8L537.7 170H523.5ZM534 154.5V142.5H562V154.5H534ZM578.2 97.2C581.333 96.7333 584.067 96.4333 586.4 96.3C588.8 96.1 591.033 96 593.1 96C599.633 96 604.867 96.8 608.8 98.4C612.8 100 615.7 102.567 617.5 106.1C619.3 109.567 620.2 114.2 620.2 120C620.2 125.733 619.3 130.367 617.5 133.9C615.7 137.433 612.8 140 608.8 141.6C604.867 143.2 599.633 144 593.1 144C591.433 144 589.8 143.967 588.2 143.9C586.667 143.767 585.333 143.667 584.2 143.6L589 131.6C590 131.733 590.967 131.833 591.9 131.9C592.9 131.967 593.767 132 594.5 132C597.367 132 599.633 131.633 601.3 130.9C602.967 130.1 604.167 128.867 604.9 127.2C605.633 125.467 606 123.167 606 120.3C606 117.433 605.633 115.167 604.9 113.5C604.167 111.767 602.967 110.533 601.3 109.8C599.633 109 597.367 108.6 594.5 108.6C593.767 108.6 592.933 108.633 592 108.7C591.133 108.767 590.133 108.867 589 109L592.2 105.3V170H578.2V97.2ZM605.8 170L589.4 138H604.4L621.2 170H605.8ZM641.4 171C637.4 171 632.8 170.6 627.6 169.8V97.2C632.8 96.4 637.4 96 641.4 96C648.333 96 653.933 97.1667 658.2 99.5C662.467 101.833 665.6 105.533 667.6 110.6C669.6 115.667 670.6 122.3 670.6 130.5V136.5C670.6 144.633 669.6 151.267 667.6 156.4C665.6 161.467 662.467 165.167 658.2 167.5C653.933 169.833 648.333 171 641.4 171ZM639.3 157C639.9 157.467 640.567 157.833 641.3 158.1C642.1 158.3 643 158.4 644 158.4C646.867 158.4 649.2 157.6 651 156C652.8 154.333 654.133 151.8 655 148.4C655.933 145 656.4 140.7 656.4 135.5V131.5C656.4 126.233 655.933 121.933 655 118.6C654.133 115.2 652.8 112.7 651 111.1C649.2 109.433 646.867 108.6 644 108.6C643 108.6 642.1 108.7 641.3 108.9C640.567 109.1 639.9 109.467 639.3 110L641.6 105.4V161.6L639.3 157ZM678.2 97.2C681.333 96.7333 684.067 96.4333 686.4 96.3C688.8 96.1 691.033 96 693.1 96C699.633 96 704.867 96.8 708.8 98.4C712.8 100 715.7 102.567 717.5 106.1C719.3 109.567 720.2 114.2 720.2 120C720.2 125.733 719.3 130.367 717.5 133.9C715.7 137.433 712.8 140 708.8 141.6C704.867 143.2 699.633 144 693.1 144C691.433 144 689.8 143.967 688.2 143.9C686.667 143.767 685.333 143.667 684.2 143.6L689 131.6C690 131.733 690.967 131.833 691.9 131.9C692.9 131.967 693.767 132 694.5 132C697.367 132 699.633 131.633 701.3 130.9C702.967 130.1 704.167 128.867 704.9 127.2C705.633 125.467 706 123.167 706 120.3C706 117.433 705.633 115.167 704.9 113.5C704.167 111.767 702.967 110.533 701.3 109.8C699.633 109 697.367 108.6 694.5 108.6C693.767 108.6 692.933 108.633 692 108.7C691.133 108.767 690.133 108.867 689 109L692.2 105.3V170H678.2V97.2ZM705.8 170L689.4 138H704.4L721.2 170H705.8ZM748 171C742.467 171 738.067 169.9 734.8 167.7C731.533 165.433 729.167 161.767 727.7 156.7C726.233 151.633 725.5 144.9 725.5 136.5V130.5C725.5 122.033 726.233 115.3 727.7 110.3C729.167 105.233 731.533 101.6 734.8 99.4C738.067 97.1333 742.467 96 748 96C753.467 96 757.833 97.1333 761.1 99.4C764.433 101.6 766.833 105.233 768.3 110.3C769.767 115.3 770.5 122.033 770.5 130.5V136.5C770.5 144.9 769.767 151.633 768.3 156.7C766.833 161.767 764.433 165.433 761.1 167.7C757.833 169.9 753.467 171 748 171ZM748 158.6C750.267 158.6 751.967 158 753.1 156.8C754.233 155.6 755 153.367 755.4 150.1C755.867 146.767 756.1 141.9 756.1 135.5V131.5C756.1 125.1 755.867 120.267 755.4 117C755 113.667 754.233 111.4 753.1 110.2C751.967 109 750.267 108.4 748 108.4C745.8 108.4 744.1 109 742.9 110.2C741.767 111.4 740.967 113.667 740.5 117C740.1 120.267 739.9 125.1 739.9 131.5V135.5C739.9 141.9 740.1 146.767 740.5 150.1C740.967 153.367 741.767 155.6 742.9 156.8C744.1 158 745.8 158.6 748 158.6ZM793.8 171C791.8 171 789.467 170.9 786.8 170.7C784.133 170.567 781.2 170.267 778 169.8V97.2C781.267 96.7333 784.2 96.4333 786.8 96.3C789.467 96.1 791.8 96 793.8 96C802.333 96 808.633 97.4333 812.7 100.3C816.833 103.167 818.9 107.567 818.9 113.5C818.9 117.9 817.867 121.6 815.8 124.6C813.733 127.6 810.867 129.533 807.2 130.4V130.8C811.667 131.6 815.067 133.667 817.4 137C819.8 140.267 821 144.6 821 150C821 157.2 818.8 162.5 814.4 165.9C810 169.3 803.133 171 793.8 171ZM789.7 157.4C790.367 157.867 791.133 158.233 792 158.5C792.867 158.7 794.033 158.8 795.5 158.8C799.3 158.8 802.1 157.933 803.9 156.2C805.7 154.4 806.6 151.667 806.6 148C806.6 144.267 805.667 141.533 803.8 139.8C801.933 138.067 798.967 137.2 794.9 137.2H785V125.6H793.4C797.333 125.6 800.2 124.933 802 123.6C803.8 122.2 804.7 119.967 804.7 116.9C804.7 113.967 803.933 111.8 802.4 110.4C800.933 108.933 798.633 108.2 795.5 108.2C794.367 108.2 793.3 108.3 792.3 108.5C791.3 108.7 790.433 109.067 789.7 109.6L792 105.4V161.6L789.7 157.4ZM829.8 170V97H866.8V108.8H844V125.6H865.8V137.2H844V158.2H866.8V170H829.8ZM891 147L889 97H907L905 147H891ZM898 171C895.133 171 892.833 170.2 891.1 168.6C889.367 167 888.5 164.8 888.5 162C888.5 159.2 889.367 157 891.1 155.4C892.833 153.8 895.133 153 898 153C900.933 153 903.233 153.8 904.9 155.4C906.633 157 907.5 159.2 907.5 162C907.5 164.8 906.633 167 904.9 168.6C903.233 170.2 900.933 171 898 171Z" fill="black"/>
</svg>
